# xmcd CD database file
#
# Track frame offsets:
#	150
#	11401
#	22903
#	37808
#	51734
#	65060
#	84642
#	96556
#	109656
#	121032
#	136945
#	151279
#	165894
#	179248
#	193787
#	208375
#	222845
#	241773
#	253191
#	268907
#	280456
#	290938
#	303091
#	315928
#	333371
#
# Disc length: 4595 seconds
#
# Revision: 0
# Processed by: cddbd v1.5.2PL0 Copyright (c) Steve Scherf et al.
# Submitted via: CDex 1.70beta2
#
DISCID=7511f119
DTITLE=Orion - From The Sun Vaults
DYEAR=1900
DGENRE=Country
TTITLE0=Jambalaya On The Bayou
TTITLE1=Take These Chains From My Heart
TTITLE2=Your Cheatin' Heart
TTITLE3=Cold Cold Heart
TTITLE4=Half As Much
TTITLE5=I'm So Lonesome I Could Cry
TTITLE6=Lovesick Blues
TTITLE7=Face To Face (Heart To Heart)
TTITLE8=I'll Take What's Left Of You
TTITLE9=Leave It Like It Is
TTITLE10=I Can Help
TTITLE11=Love Is In The Air
TTITLE12=These Sometimes
TTITLE13=Night Of The Rain
TTITLE14=That's All She Wrote
TTITLE15=Rock It Billy Rock It
TTITLE16=Lyin' Eyes
TTITLE17=Old Time Rock'n Roll
TTITLE18=Out Of The Blue
TTITLE19=Run Fool Run
TTITLE20=Strangers
TTITLE21=In A Moment Of Weakness
TTITLE22=Other Side Of You
TTITLE23=Treat Her Right
TTITLE24=Save The Last Dance For Me
EXTD=
EXTT0=
EXTT1=
EXTT2=
EXTT3=
EXTT4=
EXTT5=
EXTT6=
EXTT7=
EXTT8=
EXTT9=
EXTT10=
EXTT11=
EXTT12=
EXTT13=
EXTT14=
EXTT15=
EXTT16=
EXTT17=
EXTT18=
EXTT19=
EXTT20=
EXTT21=
EXTT22=
EXTT23=
EXTT24=
PLAYORDER=
